<svg width="234" height="30" viewBox="0 0 234 30" fill="none" xmlns="http://www.w3.org/2000/svg">
<g clip-path="url(#clip0_1_2)">
<path d="M24.32 27.28V29H0V27.28H9.04V6.44H1.12V1.04H23.2V6.44H15.28V27.28H24.32ZM27.7759 27.28V1.04H47.9359V6.6H34.0159V12.36H46.5359V17.68H34.0159V23.48H48.3759V27.28H52.2559V29H23.8959V27.28H27.7759ZM79.9478 27.28V29H50.5078V27.28H59.1078C56.9745 26.0267 55.2945 24.3333 54.0678 22.2C52.8678 20.04 52.2678 17.6 52.2678 14.88C52.2678 10.7733 53.6811 7.33333 56.5078 4.56C59.3611 1.78667 62.8411 0.399999 66.9478 0.399999C71.5345 0.399999 75.3745 2.14667 78.4678 5.64L74.5878 10.04C72.6145 7.58666 70.1611 6.36 67.2278 6.36C64.8811 6.36 62.8678 7.13333 61.1878 8.68C59.5345 10.2 58.7078 12.2667 58.7078 14.88C58.7078 17.4667 59.4945 19.5467 61.0678 21.12C62.6411 22.6933 64.5478 23.48 66.7878 23.48C69.8545 23.48 72.3611 22.2667 74.3078 19.84L78.3078 23.96C77.1345 25.32 75.8145 26.4267 74.3478 27.28H79.9478ZM110.441 27.28V29H100.761V18H89.6409V29H79.9609V27.28H83.4009V1.04H89.6409V12.72H100.761V1.04H107.001V27.28H110.441ZM120.99 27.28V29H110.43V27.28H120.99ZM149.217 27.28V29H120.537V27.28H124.417V1.04H135.297C137.19 1.04 138.817 1.26666 140.177 1.72C141.563 2.17333 142.603 2.78667 143.297 3.56C144.55 5 145.177 6.62667 145.177 8.44C145.177 10.6267 144.47 12.2533 143.057 13.32C142.577 13.6933 142.243 13.9333 142.057 14.04C141.87 14.12 141.537 14.2667 141.057 14.48C142.79 14.8533 144.163 15.64 145.177 16.84C146.217 18.0133 146.737 19.48 146.737 21.24C146.737 23.88 145.697 25.8933 143.617 27.28H149.217ZM130.657 23.72H134.937C136.723 23.72 138.057 23.5067 138.937 23.08C139.843 22.6267 140.297 21.76 140.297 20.48C140.297 19.1733 139.817 18.32 138.857 17.92C137.923 17.4933 136.417 17.28 134.337 17.28H130.657V23.72ZM130.657 12.36H133.617C135.35 12.36 136.63 12.1733 137.457 11.8C138.31 11.4267 138.737 10.6267 138.737 9.4C138.737 8.14667 138.35 7.32 137.577 6.92C136.803 6.52 135.497 6.32 133.657 6.32H130.657V12.36ZM174.699 27.28V29H148.779V27.28H152.659V1.04H158.899V23.44H170.819V27.28H174.699ZM204.251 27.28V29H171.211V27.28H180.131C177.944 26.0267 176.211 24.3067 174.931 22.12C173.678 19.9333 173.051 17.5067 173.051 14.84C173.051 10.7333 174.464 7.30667 177.291 4.56C180.118 1.78667 183.598 0.399999 187.731 0.399999C191.864 0.399999 195.344 1.78667 198.171 4.56C200.998 7.30667 202.411 10.7333 202.411 14.84C202.411 17.5067 201.771 19.9333 200.491 22.12C199.211 24.3067 197.491 26.0267 195.331 27.28H204.251ZM196.051 14.88C196.051 12.3733 195.251 10.24 193.651 8.48C192.051 6.72 190.078 5.84 187.731 5.84C185.411 5.84 183.451 6.72 181.851 8.48C180.251 10.24 179.451 12.3733 179.451 14.88C179.451 17.36 180.251 19.48 181.851 21.24C183.451 22.9733 185.411 23.84 187.731 23.84C190.078 23.84 192.051 22.9733 193.651 21.24C195.251 19.48 196.051 17.36 196.051 14.88ZM234.258 27.28V29H204.258V27.28H212.938C210.804 26.0267 209.124 24.3333 207.898 22.2C206.698 20.04 206.098 17.6 206.098 14.88C206.098 10.7733 207.511 7.33333 210.338 4.56C213.191 1.78667 216.618 0.399999 220.618 0.399999C224.644 0.399999 228.138 1.72 231.098 4.36L227.858 9.04C226.604 7.94667 225.444 7.2 224.378 6.8C223.338 6.37333 222.204 6.16 220.978 6.16C218.604 6.16 216.604 6.97333 214.978 8.6C213.351 10.2 212.538 12.32 212.538 14.96C212.538 17.6 213.311 19.72 214.858 21.32C216.431 22.8933 218.298 23.68 220.458 23.68C222.618 23.68 224.418 23.2667 225.858 22.44V14.76H232.138V24.68C231.231 25.6933 230.151 26.56 228.898 27.28H234.258Z" fill="#DADADA"/>
</g>
<defs>
<clipPath id="clip0_1_2">
<rect width="234" height="30" fill="white"/>
</clipPath>
</defs>
</svg>
